<svg width="1169" height="364" viewBox="0 0 1169 364" fill="none" xmlns="http://www.w3.org/2000/svg">
<path d="M163.511 189.652C155.332 189.652 284.535 28.8197 284.535 28.8197H175.315C175.315 28.8197 130.143 140.419 121.747 137.998C113.35 135.577 128.564 28.8197 128.564 28.8197H29.8237L0 354.204H98.7408C98.7408 354.204 110.625 263.89 115.232 271.463C119.839 279.036 144.685 354.204 144.685 354.204H257.935C257.935 354.204 230.325 189.652 163.511 189.652Z" fill="#E3502A"/>
<path d="M316.288 361.176C345.709 361.176 366.263 345.372 377.548 318.411L374.324 354.204H467.422L489.185 117.138H396.087V242.101C396.087 259.048 371.537 288.1 365.24 242.101L368.278 117.138H273.165L259.865 260.307C253.82 326.778 273.165 361.176 316.288 361.176Z" fill="#E3502A"/>
<path d="M586.204 354.204L616.028 28.8197H522.929L493.105 354.204H586.204Z" fill="#E3502A"/>
<path d="M679.271 109.236C706.676 109.236 730.052 84.135 732.873 54.8504C735.291 25.101 716.752 0 689.346 0C661.538 0 638.565 25.101 636.147 54.8504C633.326 84.135 651.462 109.236 679.271 109.236ZM705.064 354.204L726.828 117.138H633.729L611.966 354.204H705.064Z" fill="#E3502A"/>
<path d="M821.91 363.035C881.557 363.035 922.263 330.032 927.099 277.506C930.726 240.319 915.814 218.937 877.527 206.386L837.628 192.906C827.955 189.652 823.925 183.609 824.328 176.172C825.134 169.2 829.567 165.016 835.209 165.016C843.673 165.016 847.703 171.524 846.897 183.145H932.338C936.368 137.591 900.096 108.306 839.643 108.306C782.01 108.306 742.514 139.915 738.081 189.652C734.857 226.839 752.993 253.335 789.668 264.955L828.358 277.041C836.016 279.365 839.24 284.014 838.434 290.986C838.031 298.888 832.791 303.537 826.343 303.537C818.686 303.537 814.655 296.564 815.864 284.943H726.796C722.363 333.286 758.635 363.035 821.91 363.035Z" fill="#E3502A"/>
<path d="M1112.41 109.701C1083.4 109.701 1060.02 125.97 1047.12 152.93L1058.41 28.8197H965.31L935.487 354.204H1028.59L1032.75 295.363C1036.95 268.732 1057.55 215.47 1068.43 215.47C1078.1 215.47 1068.43 280.837 1064.23 302.626L1058.81 354.204H1153.52C1153.52 354.204 1174.47 243.108 1167.63 198.019C1160.79 152.93 1153.12 109.701 1112.41 109.701Z" fill="#E3502A"/>
</svg>
